# xmcd
#
# Track frame offsets:
#   150
#   12051
#   30493
#   46120
#   61483
#   76268
#   93268
#   109651
#   125359
#   140258
#   160769
#   173976
#   197674
#   213333
#   217394
#   236156
#   256869
#   276007
#
# Disc length: 3956 seconds
#
# Revision: 0
# Processed by: cddbd v1.4PL0 Copyright (c) Steve Scherf et al.
# Submitted via: Click'N Design 3D 4.8
#
DISCID=f20f7212
DTITLE=Greatest Hits - Martina McBride
DYEAR=2000
DGENRE=Country
TTITLE0=My Baby Loves Me
TTITLE1=Life #9
TTITLE2=IndependenceDay
TTITLE3=Strangers
TTITLE4=Safe In The Arms Of Love
TTITLE5=Wild Angels
TTITLE6=Valentine
TTITLE7=A Broken Wing
TTITLE8=Happy Girl
TTITLE9=Wrong Again
TTITLE10=Whatever You Say
TTITLE11=I Love You
TTITLE12=Love's The Only House
TTITLE13=There You Are
TTITLE14=When God-Fearin' Women Get The Blues (intro)
TTITLE15=When God-Fearin' Women Get The Blues
TTITLE16=Where Would You Be
TTITLE17=Concrete Angel
EXTD=
EXTT0=
EXTT1=
EXTT2=
EXTT3=
EXTT4=
EXTT5=
EXTT6=
EXTT7=
EXTT8=
EXTT9=
EXTT10=
EXTT11=
EXTT12=
EXTT13=
EXTT14=
EXTT15=
EXTT16=
EXTT17=
PLAYORDER=
